<?xml version="1.0" standalone="no"?>
<!DOCTYPE svg PUBLIC "-//W3C//DTD SVG 1.1//EN" "http://www.w3.org/Graphics/SVG/1.1/DTD/svg11.dtd">
<svg xmlns="http://www.w3.org/2000/svg" id="Capa_2" data-name="Capa 2" viewBox="0 0 10424.87 1673.3" width="10424.8701171875" height="1673.300048828125">
  <defs>
    <style>
      .cls-1 {
        fill: #009a45;
      }

      .cls-2 {
        fill: #212322;
      }

      .cls-3 {
        fill: #032b77;
      }
    </style>
  </defs>
  <g id="Capa_1-2" data-name="Capa 1">
    <path class="cls-2" d="M4619.26,453.9c32.88-.31,64.93,4.63,96.22,14.69,27.81,9.02,53.81,21.73,78.01,38.14,20.55,13.7,38.14,30.44,52.75,50.34l-60.54,63.41c-22.84-21.73-48.27-39.78-76.32-54.13-28.39-14.42-58.49-21.54-90.38-21.23-39.73-.58-76.87,8.97-111.39,28.54-33.12,18.77-59.27,44.65-78.44,77.57-19.68,34.47-29.16,71.62-28.39,111.32-.51,40.11,9.62,77.4,30.37,111.78,20.09,33.67,47.11,60.21,81.1,79.7,34.11,20.02,70.94,29.84,110.45,29.52,28.39.19,55.6-5.4,81.55-16.93,24.43-10.42,45.03-25.88,61.97-46.36,16.14-19.63,24.12-42.16,23.86-67.59v-5.21h-172.64v-92.75h268.78c1.06,8.25,2.12,17.34,3.04,25.95.92,8.64,1.25,17.39,1.25,26.1,0,31.79-4.75,62.84-14.23,93.18-9.02,29.91-23.9,56.52-44.65,79.84-24.43,30.1-54.35,53.02-89.78,68.89-38.67,17.58-79.24,26.1-121.74,25.57-41.75.31-82.06-7.31-120.8-22.99-38.79-15.68-73.04-38.14-102.8-67.44-29.11-28.34-51.52-61.2-67.25-98.68-16.28-39.25-24.17-80.08-23.86-122.58-.39-42.28,7.53-82.86,23.86-121.84,15.68-37.17,37.94-69.83,66.72-97.96,29.04-28.51,62.45-50.46,100.13-65.8,39.51-15.8,80.54-23.52,123.16-23.06Z"/>
    <path class="cls-2" d="M5419.41,652.37c-.07,37.34-11.07,71.13-32.85,101.43-21.42,31.36-49.62,54.47-84.52,69.37l141.28,243.62-113.49-.84-128.3-228.04h-138.46v228.04h-93.52V459.03h258.31c32.54.07,63.05,7.84,91.49,23.47,29.77,15.99,53.74,38.26,71.93,66.72,19.76,31.55,29.11,65.92,28.13,103.14ZM5212.18,549.22h-149.12v198.52h173.43c12.52.65,24.51-1.64,35.89-6.85,11.41-5.21,20.96-12.71,28.66-22.6,15.56-19.49,23.18-41.75,22.99-66.72.72-14.42-1.83-28.2-7.65-41.37-5.79-13.17-14.16-24.43-25.21-33.72-22.94-18.84-49.28-27.93-79-27.26Z"/>
    <path class="cls-2" d="M6004.57,458.26v374.43c.72,43.8-9.82,84.71-31.6,122.66-21.08,36.35-50,64.67-86.76,85.03-19.42,10.08-39.85,17.73-61.12,22.94-21.27,5.19-42.86,7.77-64.81,7.77s-43.54-2.58-64.81-7.77c-21.27-5.21-41.61-12.86-61.12-22.94-36.95-20.21-65.92-48.53-87.01-85.03-21.88-37.94-32.39-78.85-31.74-122.66v-374.43h93.74v366.67c-.27,13.7,1.3,27.28,4.73,40.57,3.38,13.39,8.49,26.03,15.22,37.94,6.78,11.99,15.03,22.87,24.7,32.61,9.67,9.82,20.48,18.12,32.42,24.97,22.84,13.36,47.54,20.02,73.96,19.88,27.52.22,53.21-6.37,77.19-19.88,23.93-13.39,42.82-31.89,56.73-55.45,14.67-24.92,21.73-51.79,21.27-80.64v-366.67h89.03Z"/>
    <path class="cls-2" d="M6369.54,459.03c32.08-.27,61.85,7.98,89.25,24.7,27.47,16.55,49.13,38.81,65.01,66.74,16.55,29.36,24.51,60.91,23.9,94.65.34,33.84-7.89,65.54-24.63,94.97-15.73,28.32-37.41,51.04-65.01,68.05-27.33,16.98-57.09,25.42-89.25,25.16h-152.74v232.31h-93.66V459.03h247.12ZM6367.83,743.79c15.53.14,29.72-4.34,42.36-13.51,13.17-9.41,23.37-21.4,30.68-35.82,8.03-15.41,11.94-31.89,11.67-49.33.31-12.59-1.66-24.77-6.01-36.64-4.27-11.8-10.66-22.38-19.03-31.82-7.45-8.83-16.4-15.68-26.87-20.48-10.47-4.87-21.47-7.31-33-7.31h-151.55v194.9h151.75Z"/>
    <path class="cls-2" d="M7180.11,762.55c.31,42.24-6.92,83.07-21.76,122.58-14.01,37.29-34.64,70.34-61.97,99.33-13.7,14.55-28.73,27.52-45.13,38.93-16.4,11.46-33.77,21.01-52.15,28.85-18.45,7.77-37.41,13.56-57.05,17.39-19.63,3.81-39.39,5.52-59.34,5.26-41.56.46-81.41-7.43-119.62-23.78-36.11-15.61-67.59-37.73-94.53-66.31-27.06-29.07-47.62-62.11-61.58-99.33-14.42-39.58-21.61-80.49-21.61-122.66s7.19-83.05,21.61-122.7c13.97-37.15,34.45-70.22,61.58-99.19,26.87-28.66,58.42-50.8,94.53-66.33,38.21-15.87,78.06-23.86,119.4-23.86s81.22,7.98,119.42,23.86c36.04,15.68,67.52,37.8,94.46,66.33,27.33,28.9,48.03,61.97,61.97,99.19,14.83,39.46,22.07,80.3,21.76,122.44ZM7084.74,762.55c.65-39.9-8.06-77.65-25.95-113.22-16.81-32.73-40.64-59.07-71.62-78.9-15.87-9.48-32.66-16.67-50.51-21.61-17.78-4.94-35.89-7.38-54.39-7.38s-36.64,2.44-54.42,7.38c-17.78,4.94-34.59,12.13-50.46,21.61-30.88,19.83-54.59,46.1-71.13,78.9-17.66,35.65-26.22,73.38-25.54,113.22-.6,39.66,7.89,77.21,25.54,112.77,16.55,32.8,40.26,59.1,71.13,78.92,15.87,9.48,32.68,16.64,50.46,21.59,17.85,4.94,35.96,7.38,54.42,7.38s36.62-2.44,54.39-7.38c17.85-4.94,34.64-12.11,50.51-21.59,31.09-19.97,54.95-46.39,71.62-79.38,17.78-35.31,26.46-72.77,25.95-112.31Z"/>
    <path class="cls-2" d="M7733.19,453.9c32.88-.31,64.93,4.63,96.24,14.69,27.79,9.02,53.79,21.73,77.98,38.14,20.6,13.7,38.18,30.44,52.87,50.34l-60.66,63.41c-22.77-21.73-48.19-39.78-76.27-54.13-28.44-14.42-58.54-21.54-90.43-21.23-39.73-.58-76.8,8.97-111.37,28.54-33.21,18.77-59.36,44.65-78.51,77.57-19.71,34.52-29.26,71.66-28.61,111.46-.46,40.11,9.62,77.38,30.37,111.78,20.02,33.65,47.11,60.25,81.1,79.77,34.11,19.95,70.94,29.77,110.45,29.5,28.39.19,55.53-5.48,81.48-16.93,24.51-10.4,45.18-25.88,62.04-46.36,16.21-19.63,24.12-42.16,23.86-67.59v-5.26h-172.37v-92.89h268.78c1.21,8.25,2.24,17.34,3.04,25.95.92,8.71,1.33,17.39,1.33,26.1,0,31.79-4.82,62.84-14.3,93.18-9.02,29.91-23.9,56.52-44.65,79.84-24.43,30.1-54.35,53.02-89.71,68.89-38.74,17.58-79.31,26.1-121.86,25.57-41.75.31-82.01-7.31-120.75-22.99-38.79-15.68-73.04-38.14-102.8-67.44-29.19-28.54-51.57-61.65-67.25-99.33-16.28-39-24.31-79.65-24.17-121.93-.41-42.28,7.5-82.86,23.83-121.84,15.68-37.17,37.94-69.83,66.72-97.96,29.07-28.51,62.45-50.46,100.13-65.8,39.66-15.87,80.83-23.57,123.5-23.06Z"/>
    <path class="cls-2" d="M8475.25,1065.95l-57.58-150.83h-253.97l-57.5,150.83h-95.38l235.01-606.91h95.38l233.16,606.91h-99.11ZM8244.7,703.55l-45.98,121.38h185.42l-47.54-124.88c-7.57-20.21-15.1-42.16-22.6-65.73-7.5-23.45-15.08-46.96-22.53-70.68-8.23,24.63-16.06,48.53-23.83,72.77-7.84,24.24-15.49,46.89-22.94,67.13Z"/>
    <path class="cls-2" d="M8730.14,459.03l198.54,323.42,201.94-323.42h86.67v606.91h-93.59v-248.86c0-36.42.72-70.94,2.1-103.53,1.47-32.61,3.91-65.15,7.45-97.62l-178.64,275.78h-57.55l-174.23-274.79c3.43,32.39,5.81,64.74,7,97.09,1.18,32.35,1.76,66.72,1.71,103.14v248.83h-93.28V459.03h91.88Z"/>
    <path class="cls-2" d="M9744.37,1065.95l-57.55-150.83h-254l-57.5,150.83h-95.38l234.96-606.91h95.3l233.61,606.91h-99.45ZM9514.23,703.55l-45.98,121.38h185.56l-48.36-124.88c-7.57-20.21-15.08-42.16-22.53-65.73-7.57-23.45-15.15-46.96-22.58-70.68-8.03,24.29-16.02,48.53-23.86,72.77-7.57,24.7-15.22,46.89-22.65,67.13h.39Z"/>
    <path class="cls-2" d="M10331.24,459.03h93.61v606.91h-85.78l-352.77-462.98c3.43,35.24,6.71,70.41,9.94,105.39,3.16,35.05,4.75,70.14,4.75,105.31v252.28h-93.59V459.03h84.38l352.89,472.46c-5.52-42.14-9.02-87.66-10.47-136.53-1.45-48.82-2.36-94.34-2.63-136.48l-.34-199.46Z"/>
    <path class="cls-3" d="M5945.57,1524.64v43.61h-182.91v-293.39h45.3v249.78h137.61Z"/>
    <path class="cls-3" d="M6178.72,1348.24v220.2h-43.59v-33.91c-8.25,10.59-18.12,19.3-29.79,25.95-14.09,8.49-29.31,12.49-45.71,12.18-18.31.19-35.17-4.68-50.51-14.62-15.82-10.28-27.93-23.86-36.3-40.72-9.36-18.77-13.82-38.59-13.44-59.6-.39-20.96,4.22-40.72,13.89-59.36,8.9-16.98,21.61-30.42,38.14-40.23,17.08-9.94,35.51-14.76,55.26-14.5,14.42-.31,28,3.11,40.57,10.16,10.81,5.98,20.09,13.82,27.88,23.52v-29.07h43.59ZM6069.65,1532.86c12.78.27,24.51-3.02,35.31-9.87,10.28-6.78,18.12-15.75,23.52-26.87,5.72-12.13,8.49-24.89,8.15-38.4.27-13.17-2.44-25.76-8.15-37.68-5.4-11.07-13.24-19.97-23.52-26.68-10.81-6.85-22.53-10.16-35.31-9.82-12.37-.27-23.83,2.97-34.3,9.67-10.35,6.61-18.12,15.41-23.52,26.36-5.81,12.11-8.51,24.82-8.25,38.14-.27,13.51,2.44,26.27,8.25,38.4,5.33,11.12,13.17,20.09,23.52,26.87,10.4,6.78,21.85,10.08,34.3,9.87Z"/>
    <path class="cls-3" d="M6434.24,1391.92h-52.05v176.52h-43.66v-176.52h-35.24v-39.85h35.24v-28.54c-.19-4.34.12-8.68.8-12.98.72-4.27,1.91-8.49,3.47-12.49,1.59-4.1,3.64-7.91,6.01-11.53,2.36-3.62,5.14-7,8.23-10.01,3.11-3.11,6.46-5.81,10.16-8.18,3.69-2.29,7.5-4.27,11.58-5.79,4.1-1.59,8.25-2.63,12.59-3.35,4.27-.68,8.64-.87,12.98-.6,9.82-.39,19.1,1.71,27.86,6.25,6.2,3.11,11.65,7.12,16.4,12.13l-14.69,32.85c-3.3-3.09-6.92-5.64-10.93-7.69-4.15-2.32-8.64-3.57-13.44-3.62-8.1-.92-15.1,1.52-20.96,7.16-4.08,5.14-6.05,11-5.79,17.58v28.8h52.03l-.58,39.85Z"/>
    <path class="cls-3" d="M6661.07,1458.18c.39,21.08-4.53,40.91-14.88,59.34-9.74,17.13-23.18,30.63-40.26,40.52-8.76,4.8-17.9,8.42-27.52,10.93-9.67,2.44-19.44,3.69-29.38,3.69s-19.76-1.25-29.45-3.69c-9.6-2.51-18.77-6.13-27.52-10.93-17.2-9.82-30.68-23.33-40.5-40.52-9.89-18.57-14.88-38.33-14.88-59.34s4.99-40.84,14.88-59.34c9.82-17.2,23.3-30.71,40.5-40.45,8.76-4.87,17.92-8.49,27.52-11,9.7-2.51,19.44-3.76,29.45-3.76s19.76,1.25,29.38,3.76c9.62,2.51,18.84,6.13,27.52,11,17.08,9.82,30.51,23.33,40.26,40.45,10.35,18.43,15.27,38.18,14.88,59.34ZM6617,1458.18c.65-13.85-2.05-26.87-8.23-39.27-5.74-11.05-13.97-19.83-24.63-26.34-10.76-6.44-22.34-9.62-34.86-9.48-12.59-.14-24.24,2.97-34.98,9.41-10.73,6.46-19.03,15.29-24.77,26.41-6.18,12.4-8.95,25.42-8.23,39.27-.65,13.63,2.05,26.53,8.23,38.79,5.74,11.14,13.97,20.02,24.65,26.61,10.73,6.61,22.38,9.82,35.02,9.7,12.59.19,24.17-3.04,34.86-9.7,10.66-6.63,18.84-15.46,24.63-26.61,6.13-12.25,8.9-25.16,8.3-38.79Z"/>
    <path class="cls-3" d="M6810.79,1394.89c-3.3-1.59-6.73-2.85-10.28-3.62-4.22-.94-8.51-1.4-12.78-1.4-9.41.07-18.24,2.36-26.49,6.85-8.83,4.82-16.06,11.41-21.59,19.76-5.86,9.29-8.56,19.37-8.25,30.3v121.67h-43.92v-220.2h43.61v41.63c6.32-13.51,15.61-24.51,27.86-32.93,11.72-8.49,24.75-12.86,39.25-12.98,8.3-.39,16.28.99,23.9,4.22l-11.31,46.7Z"/>
    <path class="cls-3" d="M6913.94,1568.44h-43.15v-178.16h-45.71v-42.04h45.71v-56.11h43.15v56.11h51.19v42.04h-51.19v178.16Z"/>
    <path class="cls-3" d="M7186.55,1348.24v220.2h-43.54v-33.91c-8.3,10.59-18.24,19.22-29.84,25.95-14.09,8.49-29.31,12.49-45.71,12.18-18.31.12-35.17-4.75-50.58-14.62-15.75-10.28-27.79-23.86-36.23-40.72-9.36-18.77-13.82-38.59-13.36-59.6-.46-20.96,4.15-40.72,13.77-59.36,8.95-16.98,21.66-30.42,38.14-40.23,17.17-9.89,35.63-14.69,55.38-14.3,14.42-.31,27.93,3.04,40.45,10.08,10.85,6.05,20.14,13.89,27.98,23.52v-28.97l43.54-.22ZM7077.55,1532.86c12.78.27,24.51-3.02,35.17-9.87,10.42-6.73,18.26-15.68,23.52-26.87,5.79-12.13,8.49-24.89,8.23-38.4.27-13.17-2.44-25.76-8.23-37.68-5.33-11.07-13.17-19.97-23.52-26.68-10.66-6.51-22.26-9.74-34.78-9.74s-24.1,3.23-34.83,9.74c-10.28,6.59-18.12,15.41-23.4,26.41-5.79,12.06-8.56,24.77-8.23,38.14-.34,13.44,2.44,26.22,8.23,38.4,5.28,11.12,13.12,20.09,23.4,26.87,10.54,6.73,22,9.94,34.45,9.67Z"/>
    <path class="cls-3" d="M7226.86,1258.07h43.15v310.37h-43.15v-310.37Z"/>
    <path class="cls-3" d="M7495.28,1539.52c-10.88,9.96-23.25,17.66-36.95,23.13-17.73,7.38-36.16,10.66-55.33,9.87-19.15-.72-37.27-5.52-54.35-14.35-17.44-9.36-31.14-22.6-41.1-39.78-10.13-17.85-15-37.03-14.69-57.5-.65-22.46,4.49-43.54,15.56-63.17,9.94-17.2,23.64-30.63,41.03-40.23,17.39-9.55,36.04-14.23,55.86-14.04,18.04-.19,34.78,4.34,50.32,13.63,15.34,9.29,27.4,21.81,36.04,37.56,9.33,17.39,13.82,35.96,13.44,55.72l-.41,18.5h-168.75c1.78,19.1,10.01,34.78,24.65,47.16,15.34,12.4,32.85,18.19,52.61,17.46,13.24.6,25.69-2.32,37.36-8.64,8.3-4.8,16.14-10.32,23.45-16.45l21.27,31.14ZM7404.9,1383.36c-15.53-.34-29.96,3.5-43.27,11.53-14.01,9.6-22.26,22.84-24.63,39.7h123.31v-2.97c-.65-9.33-3.84-17.7-9.48-25.16-5.4-7.31-12.21-12.98-20.29-17.05-7.98-4.08-16.47-6.2-25.42-6.32l-.22.27Z"/>
    <path class="cls-3" d="M7684.85,1531.15v37.29h-163.16v-36.04l109.87-146.8h-109.87v-37.36h160.38v35.31l-110.33,147.94,113.1-.34Z"/>
    <path class="cls-3" d="M7913.86,1348.24v220.2h-43.66v-33.91c-8.18,10.59-18.12,19.3-29.77,25.95-14.04,8.49-29.26,12.49-45.73,12.18-18.31.19-35.1-4.68-50.51-14.62-15.8-10.28-27.86-23.86-36.23-40.72-9.41-18.77-13.89-38.59-13.51-59.6-.39-20.96,4.22-40.72,13.92-59.36,8.95-16.98,21.66-30.42,38.14-40.23,17.13-9.94,35.55-14.76,55.38-14.5,14.42-.27,27.86,3.11,40.45,10.16,10.81,5.98,20.09,13.82,27.86,23.52v-29.07h43.66ZM7804.78,1532.86c12.71.27,24.51-3.02,35.24-9.87,10.35-6.78,18.19-15.75,23.52-26.87,5.74-12.13,8.49-24.89,8.23-38.4.27-13.17-2.48-25.76-8.23-37.68-5.4-11.07-13.24-19.97-23.52-26.68-10.73-6.85-22.53-10.16-35.24-9.82-12.45-.19-23.9,3.04-34.37,9.67-10.28,6.61-18.12,15.41-23.52,26.36-5.74,12.11-8.49,24.82-8.23,38.14-.27,13.51,2.48,26.27,8.23,38.4,5.33,11.12,13.17,20.09,23.52,26.87,10.47,6.78,21.93,10.08,34.37,9.87Z"/>
    <path class="cls-3" d="M8256.11,1258.07v310.37h-43.23v-30.95c-7.89,9.94-17.44,17.97-28.51,24.1-13.24,7.65-27.47,11.34-42.74,11.07-19.3.27-37.22-4.61-53.69-14.62-16.33-10.08-28.97-23.66-37.8-40.72-9.21-18.65-13.82-38.4-13.82-59.29s4.61-40.57,13.82-59.19c8.83-16.86,21.27-30.32,37.29-40.45,16.19-10.08,33.84-14.96,52.87-14.76,14.96-.19,29.19,3.04,42.55,9.74,11.6,5.48,21.54,12.98,30.03,22.6v-117.9h43.23ZM8147.42,1535.3c12.78.27,24.58-3.02,35.31-10.01,10.35-7.04,18.16-16.26,23.52-27.64,5.52-12.59,8.35-25.76,8.35-39.61s-2.82-26.92-8.35-39.51c-5.35-11.34-13.17-20.41-23.52-27.47-10.73-6.97-22.53-10.28-35.31-10.01-12.57-.27-24.17,3.11-34.78,10.01-10.4,7-18.31,16.14-23.71,27.47-5.72,12.59-8.56,25.76-8.56,39.51s2.85,27.02,8.56,39.61c5.35,11.39,13.31,20.6,23.71,27.64,10.61,6.92,22.22,10.28,34.78,10.01Z"/>
    <path class="cls-3" d="M8483.82,1539.52c-10.95,9.96-23.2,17.66-36.95,23.13-17.66,7.38-36.11,10.66-55.26,9.87-19.18-.72-37.29-5.52-54.35-14.35-17.46-9.36-31.16-22.6-41.1-39.78-10.08-17.85-14.96-37.03-14.62-57.5-.68-22.46,4.46-43.54,15.53-63.17,9.96-17.25,23.66-30.63,41.03-40.23,17.39-9.55,35.96-14.23,55.79-14.04,18.07-.19,34.86,4.34,50.39,13.63,15.37,9.29,27.35,21.81,35.96,37.56,9.43,17.39,13.89,35.96,13.51,55.72l-.53,18.5h-168.82c1.86,19.03,10.03,34.78,24.65,47.16,15.41,12.4,32.93,18.19,52.63,17.46,13.22.6,25.69-2.32,37.34-8.64,8.3-4.8,16.14-10.32,23.52-16.45l21.27,31.14ZM8393.36,1383.36c-15.46-.34-29.89,3.5-43.13,11.53-14.09,9.55-22.34,22.79-24.63,39.7h123.24v-2.97c-.68-9.33-3.84-17.7-9.43-25.16-5.4-7.31-12.18-12.98-20.29-17.05-8.03-4.08-16.52-6.2-25.5-6.32l-.27.27Z"/>
    <path class="cls-3" d="M8766.06,1480.83v-132.59h43.27v220.2h-43.27v-35.17c-7.33,11.34-16.74,20.48-28.27,27.47-13.7,8.42-28.66,12.37-44.72,11.92-10.54.39-20.74-1.52-30.44-5.6-9.74-4.1-18.16-10.08-25.28-17.92-14.3-15.61-21.42-37.29-21.42-64.96v-135.95h43.23v124.22c-.14,10.61,1.57,20.96,5.19,30.97,1.59,4.8,3.91,9.29,7,13.29,3.02,4.1,6.66,7.53,10.85,10.42,4.15,2.82,8.71,4.94,13.65,6.25,4.87,1.33,9.82,1.86,14.88,1.52,14.81.27,27.79-4.41,38.98-14.23,5.6-5.07,9.82-11.05,12.66-18.04,2.89-6.97,4.08-14.23,3.69-21.81Z"/>
    <path class="cls-3" d="M8964.31,1343.82c16.72-.99,32.08,3.04,46.1,12.21,11.26,8.42,18.91,19.35,22.87,32.85,4.53,14.88,6.71,30.18,6.51,45.78v134.11h-43.39v-131.48c.05-9.74-1.33-19.22-4.22-28.51-2.58-8.18-7.31-14.76-14.3-19.76-8.68-5.28-18.04-7.19-28.13-5.81-10.52-.27-20.41,2.17-29.69,7.12-8.49,4.49-15.34,10.73-20.55,18.84-5.14,7.91-7.65,16.6-7.57,26.1v133.29h-43.27v-220.32h43.27v34.86c7.69-11.34,17.51-20.48,29.31-27.4,13.24-8.18,27.59-12.11,43.08-11.87Z"/>
    <path class="cls-3" d="M9362.87,1539.52c-10.85,9.96-23.18,17.66-36.88,23.13-17.73,7.38-36.16,10.66-55.33,9.87-19.15-.72-37.27-5.52-54.35-14.35-17.44-9.36-31.14-22.6-41.1-39.78-10.06-17.85-14.93-37.03-14.62-57.5-.65-22.53,4.49-43.54,15.56-63.17,9.94-17.25,23.64-30.63,41.1-40.23,17.32-9.55,35.89-14.23,55.72-14.04,18.04-.19,34.83,4.34,50.32,13.63,15.41,9.29,27.4,21.81,36.09,37.56,9.43,17.39,13.92,35.96,13.44,55.72l-.46,18.5h-168.8c1.76,19.03,10.01,34.78,24.63,47.16,15.34,12.4,32.88,18.19,52.63,17.46,13.1.46,25.42-2.44,36.95-8.83,8.3-4.8,16.14-10.28,23.52-16.4l21.59,31.29ZM9272.51,1383.36c-15.56-.34-29.98,3.5-43.27,11.53-14.04,9.6-22.26,22.84-24.65,39.7h123.31v-2.97c-.72-9.33-3.88-17.7-9.48-25.16-5.4-7.31-12.11-12.98-20.29-17.05-7.96-4.03-16.47-6.13-25.42-6.32l-.19.27Z"/>
    <path class="cls-3" d="M9602.44,1347.85v312.92h-43.27v-123.28c-7.65,10.2-17.08,18.43-28.27,24.63-12.9,7.43-26.87,11.07-41.75,10.85-19.03.27-36.62-4.61-52.83-14.62-16.14-10.2-28.58-23.78-37.34-40.69-9.62-18.57-14.23-38.28-13.92-59.15-.39-20.96,4.15-40.72,13.65-59.36,8.68-16.79,21.01-30.3,36.95-40.43,15.92-10.16,33.38-15.1,52.22-14.91,14.69-.24,28.58,2.92,41.68,9.43,11.41,5.48,21.27,12.98,29.6,22.46v-27.74l43.27-.12ZM9493.75,1532.86c12.78.27,24.51-3.02,35.24-9.87,10.28-6.73,18.12-15.61,23.52-26.61,5.6-12.13,8.42-24.92,8.42-38.28s-2.82-26.15-8.42-38.26c-5.4-11.07-13.24-19.97-23.52-26.68-10.73-6.85-22.46-10.16-35.24-9.89-12.59-.27-24.17,3.04-34.78,9.89-10.35,6.78-18.24,15.73-23.71,26.87-5.72,12.11-8.56,24.82-8.56,38.26s2.85,26.1,8.56,38.21c5.48,11.07,13.44,19.97,23.71,26.68,10.61,6.73,22.19,10.01,34.78,9.67Z"/>
    <path class="cls-3" d="M9791.93,1480.83v-132.59h43.2v220.2h-43.2v-35.17c-7.31,11.34-16.74,20.48-28.27,27.47-13.7,8.42-28.58,12.37-44.72,11.92-10.59.46-20.74-1.4-30.56-5.48-9.74-4.08-18.24-10.08-25.42-17.85-14.16-15.61-21.35-37.34-21.35-64.93v-136.16h43.23v124.22c-.07,10.61,1.64,20.96,5.26,30.97,1.59,4.8,3.88,9.29,6.92,13.29,3.09,4.1,6.66,7.53,10.85,10.35,4.22,2.85,8.71,4.94,13.65,6.32,4.87,1.33,9.82,1.86,14.88,1.52,14.81.34,27.86-4.41,39.05-14.23,5.6-4.99,9.89-11.05,12.78-18.04,2.82-6.97,4.08-14.23,3.69-21.81Z"/>
    <path class="cls-3" d="M9903.5,1300.5c-8.35.65-15.61-1.86-21.78-7.57-5.09-5.55-7.45-12.13-7.12-19.71-.07-7.16,2.36-13.44,7.12-18.84,5.91-6.25,13.22-8.95,21.78-8.23,8.37-.65,15.63,1.83,21.81,7.57,5.09,5.6,7.45,12.18,7.12,19.76,0,7.19-2.36,13.51-7.12,18.91-5.98,6.18-13.24,8.88-21.81,8.1ZM9925.76,1568.44h-43.2v-220.2h43.47l-.27,220.2Z"/>
    <path class="cls-3" d="M10085.1,1344.5c18.91-.27,36.5,4.53,52.63,14.42,15.99,10.01,28.17,23.37,36.69,40.11,8.95,18.69,13.51,38.33,13.51,59s-4.56,40.38-13.51,59.02c-8.44,16.93-20.55,30.44-36.5,40.57-15.75,9.96-32.93,14.83-51.5,14.62-15.1.22-29.26-3.16-42.62-10.01-11.53-5.72-21.54-13.44-29.98-23.11v121.64h-43.66v-312.92h43.66v32.27c7.79-10.4,17.39-18.57,28.92-24.63,13.12-7.45,27.28-11.07,42.36-11ZM10079.24,1384.35c-12.64-.27-24.31,2.97-35.05,9.67-10.35,6.54-18.31,15.29-23.9,26.15-5.74,11.99-8.64,24.58-8.64,37.87s2.89,25.91,8.64,37.82c5.52,11.12,13.51,20.02,23.9,26.68,10.69,6.85,22.41,10.13,35.05,9.87,12.57.27,24.17-3.02,34.78-9.87,10.32-6.73,18.24-15.61,23.71-26.68,5.72-11.92,8.56-24.58,8.56-37.82s-2.85-25.88-8.56-37.87c-5.55-10.85-13.44-19.56-23.71-26.15-10.61-6.71-22.22-9.94-34.78-9.67Z"/>
    <path class="cls-3" d="M10424.85,1458.18c.39,21.08-4.56,40.91-14.83,59.34-9.74,17.13-23.18,30.63-40.31,40.52-8.68,4.8-17.92,8.42-27.52,10.93-9.62,2.44-19.44,3.69-29.38,3.69s-19.76-1.25-29.38-3.69c-9.67-2.51-18.84-6.13-27.52-10.93-17.27-9.82-30.78-23.33-40.52-40.52-9.94-18.57-14.88-38.33-14.88-59.34s4.94-40.84,14.88-59.34c9.74-17.2,23.25-30.71,40.52-40.45,8.68-4.87,17.85-8.49,27.52-11,9.62-2.51,19.44-3.76,29.38-3.76s19.76,1.25,29.38,3.76c9.67,2.51,18.84,6.13,27.52,11,17.13,9.82,30.49,23.33,40.31,40.45,10.28,18.43,15.22,38.18,14.83,59.34ZM10380.85,1458.18c.65-13.85-2.12-26.87-8.25-39.27-5.79-11.05-14.01-19.83-24.7-26.34-10.66-6.44-22.31-9.62-34.83-9.48-12.52-.14-24.17,2.97-34.98,9.41-10.73,6.46-18.98,15.29-24.77,26.41-6.2,12.4-8.9,25.42-8.23,39.27-.68,13.63,2.1,26.53,8.23,38.79,5.74,11.14,13.97,20.02,24.63,26.61,10.81,6.61,22.46,9.82,35.05,9.7,12.59.19,24.17-3.04,34.86-9.7,10.66-6.63,18.89-15.46,24.7-26.61,6.13-12.25,8.88-25.16,8.3-38.79Z"/>
    <path class="cls-2" d="M3754.21,1618.62c-19.33,0-34.93-15.6-34.93-34.93V34.93c0-19.33,15.6-34.93,34.93-34.93s34.93,15.6,34.93,34.93v1548.76c0,19.33-15.6,34.93-34.93,34.93Z"/>
    <g>
      <path class="cls-1" d="M1601.03,36.06c-535.12-.68-1058.49,78.19-1569.66,236.6-23.95,7.46-36.83,31.64-29.15,54.24,7.68,22.37,33.67,34.8,57.85,27.34,466.2-143.5,943.24-220.56,1431.13-230.95l91.97,152.31c1.81,3.16,4.52,5.42,7.68,7.23s6.55,2.49,10.17,2.49,7.01-.9,10.17-2.49c3.16-1.81,5.65-4.29,7.68-7.23l91.97-152.31c487.89,10.4,964.94,87.45,1431.13,230.73,23.95,7.46,49.72-4.97,57.63-27.34,7.91-22.37-5.2-46.78-29.15-54.01C2659.52,114.25,2136.38,35.38,1601.03,36.06"/>
      <path class="cls-2" d="M1005.57,1076.25l-58.53-154.12h-259.88l-58.53,154.12h-97.62l240.44-620.32h97.62l238.64,620.32h-102.14ZM769.65,705.87l-47,124.06h189.82l-48.81-127.68c-7.68-20.56-15.37-42.94-23.05-66.89-7.68-23.95-15.37-47.91-23.05-72.09-8.14,24.86-16.5,49.49-24.41,74.35-7.91,24.86-15.82,47.68-23.5,68.25Z"/>
      <path class="cls-2" d="M1559,984.28v91.97h-386.65V455.93h95.82v528.34h290.84Z"/>
      <path class="cls-2" d="M1659.11,1076.25V455.93h390.95v92.2h-295.36v164.06h246.32v92.2h-246.32v179.88h295.36v91.97h-390.95Z"/>
      <path class="cls-2" d="M2568.9,1076.25l-58.53-154.12h-259.88l-58.53,154.12h-97.62l240.44-620.32h97.62l238.41,620.32h-101.92ZM2332.98,705.64l-46.78,124.29h189.82l-48.81-127.68c-7.68-20.56-15.37-42.94-23.05-66.89-7.68-23.95-15.37-47.91-23.05-72.09-8.36,24.86-16.5,49.49-24.41,74.35-7.91,24.86-15.82,47.68-23.73,68.25h0v-.23Z"/>
      <path class="cls-1" d="M119.05,1300.2c27.34,0,47.91,6.1,61.92,18.08,14.01,11.98,20.79,29.38,20.79,52.43,0,12.2-2.94,23.5-9.04,33.9-6.55,10.4-15.37,18.3-26.67,23.28,9.04,3.16,17.17,7.46,24.63,13.33,7.91,6.33,14.01,14.01,18.53,23.05,5.2,10.85,7.46,22.15,7.23,34.12.45,14.24-2.26,27.57-8.59,40.45-5.2,10.4-12.43,18.76-21.92,25.31-9.27,6.1-19.21,10.62-30.06,12.88-10.85,2.49-21.69,3.84-32.99,3.84H1.99v-280.89h117.06v.23ZM111.82,1341.78H45.16v74.57h71.41c10.85,0,20.56-3.62,29.15-9.94,9.04-7.01,13.11-16.04,12.65-27.34,0-13.33-4.52-23.05-13.56-28.7-10.17-6.1-21.24-9.04-32.99-8.36h0v-.23ZM118.83,1458.16H45.38v80.9h75.48c13.56.45,25.99-2.94,37.29-10.4,9.72-6.78,14.46-17.17,14.46-31.41.45-9.04-2.26-16.95-8.36-23.73-5.88-5.65-12.88-9.72-20.56-11.98-8.14-2.26-16.27-3.39-24.63-3.39h-.23Z"/>
      <path class="cls-1" d="M362.66,1414.99c-3.16-1.58-6.33-2.49-9.72-3.39-4.07-.9-8.14-1.36-12.2-1.36-9.04,0-17.4,2.26-25.31,6.55-8.59,4.52-15.37,10.85-20.56,18.76-5.88,8.81-8.81,18.53-8.59,29.15v116.15h-41.35v-210.61h41.81v39.77c5.88-12.88,14.69-23.5,26.67-31.64,11.07-8.14,23.73-12.43,37.51-12.43,7.91-.45,15.59.9,22.82,3.84l-10.85,44.97-.23.23Z"/>
      <path class="cls-1" d="M579.15,1475.56c.45,20.11-4.29,39.32-14.24,56.95-9.27,16.5-22.15,29.38-38.42,38.64-16.95,9.72-35.03,14.24-54.46,14.01-19.43,0-37.74-4.52-54.69-14.01-16.5-9.27-29.38-22.15-38.64-38.64-9.49-17.85-14.24-36.61-14.24-56.95s4.75-38.87,14.24-56.72c9.27-16.5,22.15-29.38,38.64-38.64,16.95-9.72,35.03-14.46,54.69-14.01,19.43-.23,37.51,4.29,54.46,14.01,16.27,9.27,29.15,22.15,38.42,38.64,9.94,17.63,14.69,36.61,14.24,56.72ZM536.89,1475.56c.45-13.11-2.03-25.76-8.14-37.51-5.42-10.62-13.33-18.98-23.5-25.31-10.17-6.1-21.24-9.27-33.22-9.04-11.98,0-23.28,2.94-33.45,9.04-10.4,6.1-18.3,14.69-23.73,25.31-5.88,11.75-8.81,24.18-8.14,37.51-.45,13.11,2.26,25.54,8.14,37.06,5.42,10.85,13.56,19.21,23.73,25.54,10.4,6.33,21.47,9.27,33.45,9.27s23.05-2.94,33.22-9.27c10.17-6.33,18.08-14.69,23.5-25.54,5.88-11.53,8.81-23.95,8.14-37.06h0Z"/>
      <path class="cls-1" d="M604.91,1581.09v-296.71h41.35v180.56l95.14-94.23h55.59l-98.75,92.65,101.47,117.74h-53.11l-77.74-90.84-22.82,21.69v69.15h-41.13Z"/>
      <path class="cls-1" d="M984.78,1553.52h-.45c-10.4,9.49-22.15,16.72-35.25,21.92-16.95,7.23-34.57,10.4-52.88,9.49-18.3-.68-35.7-5.42-51.98-13.78-16.5-9.04-29.6-21.69-39.09-37.96-9.72-17.17-14.46-35.7-14.01-55.37-.68-21.47,4.29-41.58,14.69-60.34,9.49-16.5,22.6-29.38,39.32-38.64,16.5-9.04,34.35-13.56,53.33-13.33,17.17,0,33.22,4.07,48.13,12.88,14.69,9.04,26.21,20.79,34.57,35.93,9.04,16.72,13.11,34.57,12.65,53.33l-.45,17.63h-160.9c1.81,18.3,9.49,33.22,23.5,44.97,14.69,11.75,31.41,17.4,50.39,16.72,12.65.45,24.63-2.26,35.7-8.36,7.91-4.75,15.37-9.94,22.6-15.82l20.34,30.28-.23.45ZM898.46,1403.92c-14.91-.23-28.7,3.39-41.35,11.07-11.75,7.46-19.43,20.11-23.28,38.19h117.96v-2.94c-.68-8.81-3.62-16.95-9.04-23.95-11.07-14.69-25.76-22.15-44.29-21.92h0v-.45Z"/>
      <path class="cls-1" d="M1136.64,1414.99c-3.16-1.58-6.33-2.49-9.72-3.39-4.07-.9-8.14-1.36-12.2-1.36-9.04,0-17.4,2.26-25.54,6.55-8.36,4.52-15.37,10.85-20.56,18.76-5.65,9.04-8.36,18.53-8.14,29.15v116.15h-41.35v-210.61h41.81v39.77c5.88-12.88,14.69-23.5,26.67-31.64,11.07-8.14,23.73-12.43,37.51-12.43,7.91-.45,15.59.9,22.82,3.84l-11.07,44.97-.23.23Z"/>
      <path class="cls-1" d="M1449.85,1284.38v296.71h-41.35v-29.6c-7.46,9.49-16.5,17.17-27.34,23.05-12.65,7.23-26.21,10.85-40.9,10.62-18.53,0-35.7-4.52-51.3-14.01-15.59-9.49-27.57-22.6-36.16-38.87-8.81-17.85-13.11-36.61-13.11-56.72s4.52-38.64,13.11-56.72c8.36-16.04,20.34-28.93,35.7-38.64,15.59-9.72,32.54-14.46,50.85-14.01,27.8,0,50.85,10.17,69.38,30.96v-112.76s41.13,0,41.13,0ZM1346.12,1549.23c12.2.23,23.5-2.94,33.67-9.49,9.94-6.78,17.4-15.59,22.37-26.44,11.3-25.08,11.3-50.39,0-75.48-4.97-10.85-12.65-19.66-22.37-26.21-10.17-6.78-21.47-9.94-33.67-9.49-12.2,0-23.28,2.94-33.22,9.49-9.94,6.78-17.4,15.37-22.6,26.21-11.52,25.31-11.52,50.39,0,75.48,5.2,11.07,12.65,19.89,22.6,26.44,10.17,6.55,21.24,9.72,33.22,9.49Z"/>
      <path class="cls-1" d="M1667.69,1553.52h-.45c-10.4,9.49-22.15,16.72-35.25,21.92-16.95,7.23-34.57,10.4-52.88,9.49-18.3-.68-35.7-5.42-51.98-13.78-16.5-9.04-29.6-21.69-39.09-37.96-9.72-16.95-14.46-35.48-14.01-55.14-.68-21.47,4.29-41.58,14.69-60.34,9.49-16.5,22.6-29.38,39.32-38.42,16.72-9.04,34.57-13.56,53.33-13.56,17.17,0,33.22,4.07,48.13,13.11,14.69,8.81,26.21,20.79,34.57,35.93,9.04,16.5,13.11,34.57,12.65,53.33l-.45,17.63h-161.12c1.81,18.08,9.49,32.99,23.28,44.74,14.69,11.98,31.64,17.4,50.62,16.72,12.65.45,24.63-2.26,35.7-8.36,7.91-4.52,15.37-9.94,22.37-15.82l20.34,30.28.23.23ZM1581.6,1403.92c-14.91-.23-28.7,3.39-41.35,11.07-11.75,7.46-19.43,20.11-23.28,38.19h117.96v-2.94c-.68-9.04-3.62-16.95-9.04-23.95-11.07-14.69-25.76-22.15-44.29-21.92h0v-.45Z"/>
      <path class="cls-1" d="M1814.81,1496.35c9.27,14.24,20.79,26.44,34.35,36.61,11.98,8.81,27.34,12.88,46.55,12.88,8.81,0,17.63-1.36,25.99-4.29,7.91-2.49,14.69-6.78,20.56-12.65,5.42-5.42,8.14-12.2,7.91-20.11.45-13.78-5.2-24.18-16.95-31.19-11.3-7.46-27.34-13.11-47.91-17.17-26.21-5.42-47-14.69-62.6-27.8-15.37-13.33-23.28-32.54-23.28-57.62-.45-15.37,4.07-29.38,13.33-41.81,9.27-12.2,21.24-21.24,35.48-27.34,15.14-6.55,31.19-9.72,47.68-9.72,20.11-.45,39.32,3.62,57.4,12.65,16.04,8.59,28.7,20.56,37.74,36.61l-30.51,30.06c-7.01-11.75-16.04-21.69-27.34-29.38-11.53-7.91-24.41-11.52-38.64-11.3-13.33-.45-25.76,2.94-37.06,10.17-4.75,3.39-8.59,7.68-11.07,12.88-2.71,5.2-3.84,10.62-3.84,16.5s1.58,11.3,4.29,16.5c2.71,5.2,6.55,9.27,11.3,12.65,13.11,7.23,27.12,12.2,42.03,14.91,15.59,3.16,30.51,8.14,44.97,14.69,13.56,6.1,25.08,14.69,34.8,25.76,9.27,11.07,13.78,23.95,13.33,38.42,0,26.67-9.04,47.91-27.34,63.73-18.3,15.82-43.16,23.73-75.03,23.73-20.79.23-40.45-3.84-59.21-12.65-19.21-9.72-34.8-23.73-46.78-41.81l29.38-34.35.45.45Z"/>
      <path class="cls-1" d="M2205.08,1553.52h-.45c-10.4,9.49-22.15,16.72-35.25,21.92-16.95,7.23-34.57,10.4-52.88,9.49-18.3-.68-35.7-5.42-51.98-13.78-16.5-9.04-29.6-21.69-39.09-37.96-9.72-16.95-14.46-35.48-14.01-55.14-.68-21.47,4.29-41.58,14.69-60.34,9.49-16.5,22.6-29.38,39.32-38.42,16.5-9.27,34.35-13.56,53.33-13.56,17.17,0,33.22,4.07,48.13,13.11,14.69,8.81,26.21,20.79,34.57,35.93,9.04,16.5,13.11,34.35,12.65,53.33v17.63h-161.58c1.81,18.3,9.49,33.22,23.5,45.2,14.69,11.75,31.41,17.4,50.39,16.5,12.65.45,24.41-2.03,35.7-8.14,7.91-4.75,15.37-9.94,22.37-15.82l20.34,30.06h.23ZM2118.98,1403.92c-14.69-.23-28.7,3.39-41.35,11.07-11.75,7.46-19.66,20.11-23.28,38.19h117.96v-2.94c-.68-8.81-3.62-16.95-9.04-23.95-11.07-14.69-25.76-22.15-44.29-21.92h0v-.45Z"/>
      <path class="cls-1" d="M2266.09,1615.89c9.27,6.78,19.21,11.53,30.06,14.69,11.3,3.62,23.28,5.42,35.25,5.65,21.69,0,38.19-5.42,49.72-15.82,11.53-10.62,17.4-26.44,17.17-47.46v-25.76c-4.29,7.01-9.49,13.11-16.04,18.3-7.46,5.88-15.59,10.62-24.41,14.01-9.27,3.62-19.21,5.42-29.38,5.42-18.76,0-36.38-4.29-52.65-13.78-16.27-9.49-28.93-22.6-37.74-39.09-9.27-17.85-13.78-36.61-13.78-56.72s4.52-38.87,13.78-56.72c8.81-16.27,21.24-29.15,37.06-38.64,16.27-9.72,33.67-14.46,52.43-14.01,15.14-.23,29.38,3.16,42.71,10.62,11.07,5.65,20.34,13.56,28.25,23.05v-29.38h41.35v197.73c0,25.31-4.97,45.42-14.91,60.79-9.72,15.37-23.05,26.67-39.77,33.9-17.17,7.23-34.8,10.85-53.56,10.62-15.37,0-30.28-2.49-44.74-7.01-13.11-3.84-25.08-9.94-35.93-18.3l15.14-32.09h0ZM2332.98,1403.7c-12.43,0-23.73,2.94-34.35,9.27-10.17,6.55-18.08,14.91-23.73,25.76-5.88,11.52-8.81,23.73-8.36,36.61-.23,12.88,2.49,25.08,8.36,36.61,5.65,10.62,13.56,18.98,23.73,25.31,10.62,6.55,21.92,9.72,34.35,9.49,12.65,0,24.18-2.94,35.03-9.27,10.17-6.33,18.08-14.69,23.5-25.31,5.42-11.53,8.36-23.95,8.36-36.83s-2.71-25.08-8.36-36.61c-5.65-11.07-13.78-19.66-24.18-25.99s-21.92-9.27-34.35-9.04h0Z"/>
      <path class="cls-1" d="M2617.72,1497.25v-126.77h41.35v210.61h-41.35v-33.9c-7.01,10.85-16.04,19.66-27.12,26.21-12.88,8.14-27.12,11.98-42.48,11.53-21.24.68-38.87-6.78-53.33-22.37-13.56-14.91-20.34-35.7-20.34-62.14v-129.94h41.35v118.64c0,10.17,1.58,20.11,4.97,29.6,3.16,9.04,8.59,16.27,16.04,21.92,8.36,6.1,17.85,8.81,28.25,8.59,14.24,0,26.67-4.29,37.29-13.78,10.4-9.27,15.59-21.92,15.37-38.19Z"/>
      <path class="cls-1" d="M2814.77,1414.99c-3.16-1.58-6.55-2.71-9.94-3.39-3.84-.9-8.14-1.36-12.2-1.36-9.04,0-17.4,2.26-25.54,6.55-8.36,4.52-15.37,10.85-20.56,18.76-5.65,9.04-8.36,18.53-8.14,29.15v116.15h-41.58v-210.61h41.58v39.77c5.88-12.88,14.91-23.5,26.67-31.64,11.07-8.14,23.73-12.43,37.51-12.43,7.91-.45,15.59.9,22.82,3.84l-10.85,44.97.23.23Z"/>
      <path class="cls-1" d="M3031.49,1475.56c.23,20.11-4.29,39.32-14.24,56.95-9.27,16.5-22.15,29.38-38.64,38.64-16.95,9.49-35.03,14.24-54.46,14.01-19.43,0-37.74-4.52-54.69-14.01-16.5-9.27-29.38-22.15-38.64-38.64-9.49-17.63-14.24-36.61-14.24-56.72s4.75-38.87,14.24-56.72c9.27-16.5,22.37-29.38,38.64-38.64,16.95-9.72,35.03-14.46,54.69-14.01,19.43-.23,37.51,4.29,54.24,14.01,16.5,9.27,29.38,22.15,38.64,38.64,9.94,17.63,14.69,36.61,14.24,56.72l.23-.23ZM2989.23,1475.56c.45-13.11-2.26-25.76-8.36-37.51-5.42-10.62-13.11-18.98-23.5-25.31-10.17-6.1-21.24-9.27-33.22-9.04-11.98,0-23.05,2.71-33.45,9.04-10.4,6.1-18.3,14.69-23.73,25.31-5.88,11.75-8.81,24.18-8.14,37.51-.45,13.11,2.26,25.54,8.14,37.06,5.42,10.62,13.33,18.98,23.73,25.31,10.17,6.33,21.47,9.27,33.45,9.27s23.05-2.94,33.22-9.27c10.17-6.33,18.08-14.69,23.5-25.31,6.1-11.53,8.81-23.95,8.36-37.06h0Z"/>
      <path class="cls-1" d="M3177.69,1425.84c-7.46-7.46-16.04-13.56-25.31-18.3-8.14-4.52-16.95-7.01-26.21-7.23-5.42,0-11.07.68-16.5,2.03-5.42,1.13-9.94,3.62-13.78,7.23-4.07,4.52-6.1,9.72-5.65,15.82,0,9.72,4.07,16.5,13.11,20.56,10.17,4.52,20.56,8.14,31.41,10.85,11.07,2.94,21.69,6.55,32.09,11.07,10.17,4.07,18.76,10.62,25.76,19.21,6.78,8.36,10.17,20.11,10.17,35.48.23,12.65-3.39,23.95-11.07,33.67-7.46,9.72-16.95,16.72-28.47,21.47-11.75,4.97-23.95,7.46-36.61,7.23-15.59,0-30.51-2.71-45.2-8.14-15.37-5.65-28.02-15.14-37.96-28.25l28.02-24.18c7.01,8.14,15.14,14.69,24.63,19.43,10.85,5.2,21.92,7.23,33.9,7.01,5.2,0,10.17-.9,15.14-2.49s9.27-4.52,12.88-8.59c4.07-4.52,5.88-9.94,5.65-16.04.23-5.88-1.58-10.85-5.65-14.91-4.52-4.07-9.72-7.01-15.59-8.81-7.01-2.49-14.01-4.52-21.02-6.1-11.52-3.39-22.82-7.23-33.9-11.75-10.85-4.52-20.11-11.07-27.57-20.11-7.46-8.59-11.07-20.56-11.07-35.48-.23-11.98,3.16-22.82,10.62-32.32,7.46-9.27,16.72-16.27,27.8-20.79,11.75-4.97,23.95-7.46,36.83-7.23,14.01,0,27.57,2.94,40.9,7.91,14.69,5.2,26.67,13.78,36.61,25.76l-23.95,25.99h0Z"/>
    </g>
  </g>
</svg>